<svg xmlns="http://www.w3.org/2000/svg" viewBox="0 0 300 300"><path fill="#77CBB9" d="M241.52 73.51c-3.2-5.25-7.69-9.31-13.09-12.2a2.91 2.91 0 00-.72-.27l-2.18-1.96c-2.15-1.94-4.78.75-4.08 3.05-1.64.28-3.1 1.77-2.07 3.54.23.39.47.78.7 1.16-1.87-.68-4.33.93-3.69 2.99l-.7-.54c-.02-2.05-.1-4.11-.25-6.16-.16-2.27-3.48-3.09-4.76-1.26-.96 1.38-1.93 2.76-2.89 4.14-.12.11-.24.22-.35.35l-6.22-5.41c-1.29-1.13-2.67-.7-3.47.3-.93-.11-1.95.25-2.61.97-.87.96-1.75 1.92-2.62 2.88-1.6-1.06-3.22-2.1-4.84-3.12-2.9-1.82-5.86 1.92-3.26 4.23l1.36 1.21c-2.12-1.41-4.23-2.82-6.35-4.23.06-1.07.12-2.15.16-3.23.09-2.41-3.14-4.37-4.77-1.97-.38.56-.78 1.12-1.17 1.68-2.11-.28-4.37 1.99-2.83 3.94-.11.15-.22.31-.34.46-2.04-1.12-4.08-2.22-6.15-3.28-2.61-1.34-4.83 2.43-2.94 4.34-1.24-.62-2.49-1.22-3.74-1.81.28-2.56.68-5.11 1.21-7.66.67-3.19-3.76-3.79-5.11-1.38-1.25 2.23-2.49 4.45-3.74 6.68-.79.46-1.29 1.38-1.31 2.35-.56 1.01-1.13 2.02-1.69 3.03-2.05-1.32-4.1-2.64-6.15-3.95-.33-2.44-.77-4.87-1.33-7.28-.47-2.04-3.38-3.33-4.76-1.26-.84 1.25-1.67 2.51-2.51 3.76-1.21-1.16-3.73-1.13-4.53.75-.93 2.17-1.86 4.35-2.78 6.52l-.14-.1c-2.33-1.75-5.94 1.52-3.75 3.75l1.62 1.65c-.28.66-.56 1.31-.84 1.97-1.54.43-2.51 2.39-1.57 4.11-.04 1.08.66 2.03 1.58 2.51.21.33.43.65.65.97l-.62 2.57c-.95.74-1.44 1.97-.75 3.1-1.61 6.6-3.22 13.21-4.82 19.81-.64 2.64 3.29 4 4.77 1.97.54-.74 1.06-1.48 1.58-2.23-2.38 9.12-4.54 18.29-6.47 27.51-.65 3.08 3.86 3.95 5.11 1.38 0-.01.01-.03.02-.04-.23 1.24-.46 2.49-.66 3.74-.51 3.16 3.77 3.89 5.11 1.38 0 0 0-.01.01-.02l.2.26c-.59 2.38-1.16 4.77-1.7 7.17-1.82.29-3.23 2.29-1.77 4.16.23.29.45.58.68.88-.54 2.57-1.07 5.14-1.55 7.73-.6 3.19 3.76 3.81 5.11 1.38.49-.87.97-1.74 1.46-2.61.08.11.17.22.25.32-.55 1.64-1.11 3.28-1.66 4.91-2.04.28-3.49 2.95-1.54 4.57-.4 1.19-.8 2.38-1.21 3.57-.99 2.94 2.37 4.74 4.48 2.75.73.8 1.45 1.6 2.16 2.41-.9 2.69-1.77 5.39-2.6 8.1-1.94-1.5-3.91.14-4.06 2.08-.16.17-.3.37-.42.6-.1-.06-.2-.11-.31-.16-1.1-.94-2.2-1.88-3.3-2.83-2.32-1.98-5.62 1.39-3.75 3.75l2.21 2.78c-.32.44-.64.88-.95 1.32-1.93-1.64-3.86-3.28-5.79-4.93-2.28-1.94-5.78 1.47-3.75 3.75 1.11 1.25 2.21 2.51 3.3 3.77-.36.03-.71.13-1.04.33-2.94-2.88-5.88-5.77-8.82-8.65-2.16-2.12-5.71 1.46-3.75 3.75 1.14 1.33 2.29 2.66 3.43 4-1.01-.48-2.24-.37-3.07.8-.68.97-1.33 1.95-1.97 2.95-1.68-1.19-3.36-2.37-5.04-3.56-1.68-1.19-3.33-.35-3.93 1.02a494.71 494.71 0 00-6.86-5.21c-2.33-1.74-5.93 1.5-3.75 3.75 4.6 4.73 9.29 9.36 14.08 13.89a86.13 86.13 0 00-1.58 3.53c-1.71-.99-3.42-1.99-5.13-2.98-2.12-1.23-3.71.92-3.49 2.87-2.42-.54-3.73 3.12-1.92 4.87 2.21 2.14 4.45 4.24 6.71 6.32-.13.5-.26 1-.38 1.5l-.55-.32c-2.94-1.72-5.85 1.86-3.26 4.23.82.75 1.65 1.49 2.49 2.23-.11.62-.21 1.24-.3 1.86-.7-.33-1.4-.65-2.1-.98-.56-.26-1.15-.26-1.69-.09l-.7-.32c-3.13-1.46-5.16 3.46-2.07 4.93 1.21.57 2.4 1.18 3.57 1.8a93.379 93.379 0 0020.11 14.65c2.61 1.42 4.3-1.91 3.13-3.98 5.46 2.54 10.93 5.08 16.39 7.63 2.48 1.15 4.7-2.03 3.15-4.1-.84-1.11-1.69-2.21-2.56-3.3.46-.52.73-1.18.67-1.85.07-.06.14-.12.21-.19.38-.39.75-.79 1.12-1.18.14.02.28.03.41.03-.08 1.06.55 1.99 1.45 2.45-.16.32-.31.65-.47.97-.8 1.64.57 3.41 2.14 3.7-.55 1.19-1.09 2.39-1.62 3.59-1.29 2.96 2.59 4.73 4.58 2.67 4.05-4.21 7.8-8.66 11.27-13.34a38.77 38.77 0 007.3-10.91c.91-2.05-1.28-4.03-3.08-3.73.29-.53.57-1.07.84-1.62 1.36-2.69-2.88-5.17-4.58-2.67-.07.11-.14.22-.21.32 1.06-2.17 2.12-4.35 3.17-6.52 1.48-.48 2.56-2.31 1.69-3.86.1-1.28-.92-2.38-2.12-2.72-1.27-1.6-2.55-3.2-3.82-4.8.07-.15.14-.3.21-.44l2.6 2.22c2.65 2.26 5.75-1.93 3.26-4.23a85.843 85.843 0 01-3.33-3.28l1.05-2.19c2.8 1.37 5.68 2.61 8.61 3.7 2.65.98 4.52-1.87 3.15-4.1-2.27-3.7-4.68-7.31-7.19-10.84 1.82-.15 3.28-2.54 1.99-4.36a78.39 78.39 0 00-1.73-2.34c2.26.6 4.63-1.89 2.9-4.12l-5.32-6.87c.41-1.73.74-3.48 1-5.25.01-.08 0-.15.01-.23.05.03.09.06.14.09 2.46 1.57 5.69-1.21 3.75-3.75-1.96-2.56-3.92-5.13-5.88-7.69.3-.71.6-1.43.91-2.14.13.1.26.19.38.29 2.36 1.75 5.81-1.4 3.75-3.75l-1.73-1.97c.26-.58.52-1.16.79-1.74.54-1.17.2-2.18-.51-2.83.59-.86.7-2-.16-2.96-1.86-2.07-3.69-4.17-5.49-6.3.3-.89.6-1.77.9-2.66 0-.02 0-.03.01-.05.86.43 1.72.85 2.59 1.25 2.34 1.08 4.97-2.11 3.15-4.1-3.8-4.15-7.42-8.45-10.84-12.9 0-1.26-.84-2.19-1.88-2.5-.41-.55-.83-1.08-1.23-1.63l11.49 7.41c2.59 1.67 5.4-1.15 3.75-3.75-3.34-5.23-6.9-10.3-10.67-15.22 2.68 1.37 5.28-2.34 2.84-4.49a87.466 87.466 0 01-3.73-3.47c.23-.16.43-.36.6-.59l12.04 8.84c2.34 1.72 5.96-1.51 3.75-3.75-1.54-1.57-3.09-3.13-4.63-4.7 1.16.9 2.34 1.77 3.54 2.62 2.8 1.98 6.02-2.15 3.26-4.23-.77-.58-1.54-1.16-2.3-1.74.61.16 1.25.1 1.81-.29l9.21 5.82c1.46.92 2.92.44 3.69-.56.77 1.54 2.85 2.17 4.39.48.55-.61 1.11-1.22 1.66-1.82l5.13 3.3c2.91 1.87 5.79-1.89 3.26-4.23l-4.09-3.79c.75-.82 1.49-1.64 2.24-2.46 3.91 2.81 7.71 5.78 11.38 8.91 2.51 2.15 5.33-1.44 3.62-3.81.25-.06.49-.17.72-.33 3.11 2.5 6.28 4.93 9.51 7.28.95.69 1.93.68 2.71.28.7-.06 1.36-.35 1.82-.9.72-.88 1.45-1.76 2.17-2.63 1.79 1.12 3.59.04 4.05-1.48 2.76 2.39 5.47 4.82 8.13 7.32 2.52 2.36 5.73-1.89 3.26-4.23-.15-.14-.3-.29-.45-.43 1.56-.67 2.47-3.14.83-4.74-.36-.35-.72-.71-1.08-1.06 2.12-1.03 3.76-2.75 4.61-5.13.19-.53.21-1.02.12-1.47 1.63-.59 2.8-2.52 1.3-4.04a77.99 77.99 0 01-4.65-5.15c.42-.14.8-.39 1.1-.72l6.16 5.55c2.43 2.19 5.2-1.36 3.75-3.75zm-72.98 1.53c1.32.77 2.64 1.55 3.94 2.36-.09.56-.18 1.13-.28 1.69-1.32-1.23-2.65-2.45-3.97-3.68.11-.12.21-.24.32-.37zm-9.92-1.27c-.47-.3-.94-.6-1.4-.9v-.4l1.41 1.3zm-6.7-5.34l-.03 1.01c-.13-.08-.26-.17-.39-.25.14-.25.28-.51.42-.76zm-19.36 30.11l-1.5 3.09c-.57-.37-1.15-.74-1.72-1.11.4-1.48.82-2.95 1.23-4.42.67.81 1.34 1.62 1.99 2.44zm2.97-35.75c-.28.73-.23 1.6.29 2.38.09.88.17 1.75.23 2.63l-1.22-.77c-.73-.46-1.51-.55-2.2-.38l2.85-4.26c.02.14.04.27.05.41zm-8.04 46.14l-.78 1.61.51-2.01c.09.13.18.27.28.4zm4.74 6.65c-.24.45-.48.9-.72 1.34l-.33-.24c.19-.58.38-1.16.58-1.75.16.21.31.43.47.64zm11.37-43.16s-.04.07-.06.1l-1.96-1.24c0-.24 0-.49-.02-.73.68.62 1.36 1.24 2.03 1.86zm-4 75.69c.38.28.76.57 1.14.85-.07.12-.14.24-.21.37l-.93-1.21zm-22.39 94.1c-.3-.23-.6-.45-.9-.68.07-.12.13-.24.2-.36.3.21.61.4.91.61-.07.15-.14.29-.21.44zm20.72-44.24c-.1-.11-.2-.23-.29-.34l.06-.12c.13.08.27.15.41.23-.06.08-.12.16-.17.23zm-31.73 1.96c-.81 1.08-1.62 2.17-2.43 3.26l-2.6-1.83c.48-1.29.97-2.59 1.45-3.88.21-.57.21-1.13.06-1.63 1.17 1.36 2.34 2.73 3.51 4.09zm32.31 16.93c-.62.87-1.24 1.74-1.87 2.6-.5-.77-1.01-1.53-1.52-2.3.36-.75.72-1.51 1.08-2.26.77.65 1.54 1.31 2.3 1.96zm7.29-21.12a88.634 88.634 0 01-8.53-4.74c.82-1.27 1.58-2.57 2.3-3.89 2.15 2.82 4.23 5.69 6.23 8.63zm-3.11-32.25c-.33.17-.63.41-.88.75-.3.41-.59.82-.88 1.23-.15-.2-.31-.39-.46-.59l.87-2.25 1.35.86zm-5.62-9.91l-1.17-.75.18-.54.98 1.29zm1.74-25.54c-.09.12-.18.24-.26.38-.27-.33-.54-.65-.8-.98.35.2.71.4 1.06.6zm-3.08-23.42c.19-.44.38-.87.57-1.31.81 1.07 1.61 2.14 2.4 3.23l-2.97-1.92zm17.26-19.3c.05.31.17.61.33.88-.19-.14-.38-.28-.56-.42-1.71-1.37-3.37-2.8-4.97-4.28l5.11 3.23.09.6zm9.76-2.58l7.63 4.91-.45 1.77c-.13-.18-.28-.36-.47-.53-2.23-2.05-4.47-4.1-6.7-6.15zm14.28-.65c.11-.54.21-1.07.31-1.61.24.16.48.33.72.49-.34.38-.68.75-1.03 1.13zm17.12 3.8l-2.4-2.25c.43.31.86.62 1.28.93.4.34.81.67 1.21 1-.04.11-.07.21-.09.32zm14.36 3.02l-.15.76c-2.2-1.81-4.43-3.59-6.69-5.32 2.28 1.52 4.56 3.04 6.85 4.56z"></path><path fill="#4e4f66" d="M242.77 62.14c-.14-1.03-.85-1.91-2.23-1.96a2500.33 2500.33 0 01-112.15-6.69c-3.42-.28-4.12 5.02-.68 5.3 36.86 3.03 73.78 5.23 110.74 6.63l-3.67 28.52c-.44 3.41 4.86 4.1 5.3.68l3.86-29.98c.15-1.18-.38-2.03-1.17-2.51z"></path><path fill="#4e4f66" d="M237.06 97.57c-27.7-1.82-55.38-3.99-83.03-6.51-1.26-.11-2.15.54-2.6 1.42-1.54-1.4-4.81-.37-4.53 2.35 3.01 29.14 4.51 58.41 4.47 87.7-.92.44-1.6 1.36-1.44 2.67 1.82 14.86 1.67 31.09-3.12 45.44-4.05 12.16-12.51 22.81-26.23 23.41-6.83.3-13.61-1.81-19.69-4.75-5.99-2.9-12.22-6.85-16.54-11.98-5.15-6.11-4.83-13.28-3.94-20.8.86-7.22 2.22-14.86 6.71-20.79 7.62-10.08 23.25-13.36 34.16-6.84.93.56 1.9.51 2.69.12 1.59.46 3.82-.64 3.73-2.87-.86-20.93-1.6-41.86-2.23-62.8-.31-10.29-.59-20.58-.85-30.88-.13-5.32-.26-10.65-.37-15.97-.05-2.48-.11-4.97-.16-7.45l-.09-4.26c-.01-.71-.03-1.42-.04-2.13.02-.11.03-.2.04-.29.06-.05.12-.09.18-.14.86-.65 1.39-2.15.83-3.16-1.22-2.18-4.29-2.24-5.76-.17-1 1.41-.61 3.42-.58 5.04l.15 7.45c.19 9.23.41 18.46.65 27.69.48 18.63 1.05 37.26 1.71 55.89.34 9.49.7 18.98 1.08 28.47-11.17-5.44-25.18-3.8-34.8 4.26-5.95 4.98-9.17 11.93-10.9 19.38-1.86 8.02-3.52 17.92-.85 25.91 2.43 7.28 8.85 12.57 15.05 16.65 6.58 4.33 13.86 7.71 21.64 9.14 7.41 1.36 15.33.62 21.99-3.09 6.22-3.46 10.81-8.92 14.08-15.17 3.82-7.31 5.74-15.55 6.76-23.69.52-4.13.83-8.29.94-12.45.13-.29.21-.63.22-1.02.91-35.79-.42-71.61-4.01-107.23.27.13.59.23.96.26 27.65 2.52 55.33 4.68 83.03 6.51 3.42.22 4.12-5.07.68-5.3z"></path></svg>